<svg id="Ebene_1" data-name="Ebene 1" xmlns="http://www.w3.org/2000/svg" viewBox="0 0 324.45 194.74">
    <defs>
    </defs>
    <title>ff_logo_white_text</title>
    <polygon class="cls-1"
             points="145.95 71.13 178.5 71.13 178.5 99.71 145.81 99.71 145.81 137.52 215.33 137.52 215.33 0 211.24 0 211.24 133.44 149.9 133.44 149.9 103.79 182.59 103.79 182.58 67.05 150.03 67.05 150.03 37.66 181.78 37.66 181.77 0.03 112.25 0.02 112.25 137.56 116.34 137.56 116.34 4.12 177.68 4.12 177.68 33.58 145.94 33.59 145.95 71.13"/>
    <path class="cls-1" d="M119.07,231.72h-1.83v-20h13.06v1.66H119.07v6.76h10.06v1.64H119.07v9.9Z"
          transform="translate(-117.23 -37.49)"/>
    <path class="cls-1"
          d="M152.44,229.63a8.25,8.25,0,0,1-12.13-.11,11.82,11.82,0,0,1-2.51-7.8c0-5.52,2.71-10.46,8.65-10.46,6.61,0,8.56,5.82,8.54,10.35A13,13,0,0,1,152.44,229.63Zm-6-16.73c-5.09,0-6.64,5-6.64,8.85s1.47,8.79,6.56,8.79c6.16,0,6.59-7.29,6.59-8.91C153,218,151.5,212.9,146.44,212.9Z"
          transform="translate(-117.23 -37.49)"/>
    <path class="cls-1" d="M169.95,231.72h-1.89V213.43h-6.28v-1.66h14.47v1.66h-6.31v18.29Z"
          transform="translate(-117.23 -37.49)"/>
    <path class="cls-1"
          d="M197.63,229.63a8.25,8.25,0,0,1-12.13-.11,11.81,11.81,0,0,1-2.51-7.8c0-5.52,2.71-10.46,8.65-10.46,6.61,0,8.56,5.82,8.54,10.35A13,13,0,0,1,197.63,229.63Zm-6-16.73c-5.09,0-6.64,5-6.64,8.85s1.47,8.79,6.56,8.79c6.16,0,6.59-7.29,6.59-8.91C198.16,218,196.7,212.9,191.64,212.9Z"
          transform="translate(-117.23 -37.49)"/>
    <path class="cls-1"
          d="M224.88,231.72h-1.64v-3.34a5.57,5.57,0,0,1-2.72,3.11,7.3,7.3,0,0,1-3.33.74c-5.51,0-8.48-4.52-8.48-10.32,0-6.17,3.17-10.66,8.94-10.66a7.34,7.34,0,0,1,7.38,5.06l-1.78,1a5.39,5.39,0,0,0-5.46-4.41c-4.1,0-7.07,3.31-7.07,8.93,0,5.09,2.26,8.77,6.59,8.77,4.78,0,6-4.41,5.94-7.54h-7.35v-1.73h9v10.43Z"
          transform="translate(-117.23 -37.49)"/>
    <path class="cls-1"
          d="M251.2,231.72h-2.38l-6.3-8.85h-4.69v8.85h-1.89v-20h5.6c3.48,0,4.35,0,5.6.45a5.35,5.35,0,0,1,3.5,5.29,5.16,5.16,0,0,1-1.5,3.85,6.87,6.87,0,0,1-4.41,1.55Zm-13.37-10.49h4.69a19.36,19.36,0,0,0,3.36-.2,3.44,3.44,0,0,0,2.88-3.65,3.55,3.55,0,0,0-2.91-3.82,18.34,18.34,0,0,0-3.33-.14h-4.69v7.8Z"
          transform="translate(-117.23 -37.49)"/>
    <path class="cls-1"
          d="M275.6,231.72h-2.06l-2.29-6h-8.93l-2.26,6h-2.12l8.14-20h1.58Zm-4.92-7.55L266.83,214l-3.9,10.18h7.75Z"
          transform="translate(-117.23 -37.49)"/>
    <path class="cls-1" d="M286.66,231.72h-1.84v-20h13.07v1.66H286.66v6.76h10.07v1.64H286.66v9.9Z"
          transform="translate(-117.23 -37.49)"/>
    <path class="cls-1" d="M308.29,231.72H306.4v-20h1.89v20Z" transform="translate(-117.23 -37.49)"/>
    <path class="cls-1" d="M333.1,231.72H319.36v-20h13v1.75H321.25v7.1h10.1v1.75h-10.1V230H333.1v1.76Z"
          transform="translate(-117.23 -37.49)"/>
    <path class="cls-1" d="M371.75,211.77v3.84H361.41v4.19h9.53v3.87h-9.53v8.06h-5v-20h15.32Z"
          transform="translate(-117.23 -37.49)"/>
    <path class="cls-1"
          d="M382.14,211.77h9c2.09,0,4.69.05,6.53,2a6.7,6.7,0,0,1,1.59,4.44c0,4-2.74,5-4.1,5.51l4.61,8h-5.51l-4-7.12h-3.14v7.12h-5v-20Zm5,3.73v5.4h4.12c0.71,0,3-.09,3-2.74s-1.84-2.63-2.88-2.66h-4.24Z"
          transform="translate(-117.23 -37.49)"/>
    <path class="cls-1" d="M410.24,211.77H425v3.87h-9.78v3.62h9.13V223h-9.13v4.75h10.66v3.93H410.24v-20Z"
          transform="translate(-117.23 -37.49)"/>
    <path class="cls-1" d="M441.68,211.77v20h-5v-20h5Z" transform="translate(-117.23 -37.49)"/>
</svg>