<?xml version="1.0" standalone="no"?>
<!DOCTYPE svg PUBLIC "-//W3C//DTD SVG 20010904//EN"
 "http://www.w3.org/TR/2001/REC-SVG-20010904/DTD/svg10.dtd">
<svg version="1.0" xmlns="http://www.w3.org/2000/svg"
 width="1104.000000pt" height="1104.000000pt" viewBox="0 0 1104.000000 1104.000000"
 preserveAspectRatio="xMidYMid meet">
<metadata>
Created by potrace 1.11, written by Peter Selinger 2001-2013
</metadata>
<g transform="translate(0.000000,1104.000000) scale(0.100000,-0.100000)"
fill="#000000" stroke="none">
<path d="M1378 10818 c-2 -121 0 -222 5 -225 4 -2 5 -8 2 -13 -7 -12 -8 -458
-1 -469 3 -4 3 -10 0 -13 -6 -7 -6 -777 0 -787 3 -5 3 -11 0 -13 -6 -7 -6
-456 0 -467 3 -4 3 -10 1 -13 -7 -6 -7 -1737 0 -1747 2 -5 2 -11 -1 -13 -6 -7
-6 -456 0 -467 3 -4 3 -11 0 -13 -6 -7 -6 -456 0 -467 3 -4 3 -11 0 -13 -6 -7
-6 -456 0 -467 3 -4 3 -11 0 -13 -6 -7 -6 -456 0 -467 3 -4 3 -11 0 -13 -6 -7
-6 -456 0 -467 3 -4 3 -10 1 -13 -7 -6 -7 -1737 0 -1747 2 -5 2 -11 -1 -13 -6
-7 -6 -456 0 -467 3 -4 3 -10 0 -13 -6 -7 -6 -777 0 -787 3 -5 3 -11 0 -13 -7
-7 -6 -456 1 -468 3 -5 2 -11 -2 -13 -5 -3 -7 -252 -5 -554 l2 -548 163 0 162
0 2 5315 c1 2923 2 5325 2 5338 l1 22 2449 0 c1950 0 2450 -3 2453 -12 3 -11
3 -2322 -1 -2339 0 -3 -562 -6 -1248 -7 -687 0 -1257 -1 -1268 -1 -20 -1 -20
-7 -20 -1495 0 -822 3 -1497 6 -1500 3 -3 589 -6 1302 -6 l1297 0 0 -58 c0
-31 0 -77 -1 -102 -1 -25 -1 -52 0 -60 1 -16 0 -51 -3 -90 -1 -14 2 -37 6 -52
3 -16 3 -28 -2 -28 -5 0 -5 -12 -2 -27 4 -16 5 -48 2 -73 -3 -25 -2 -62 1 -82
3 -21 4 -40 1 -43 -7 -6 -4 -216 3 -223 3 -3 0 -10 -5 -17 -6 -7 -6 -23 -1
-43 5 -17 7 -32 5 -35 -2 -2 -4 -31 -4 -63 0 -32 0 -67 0 -76 0 -19 -1 -45 -1
-122 0 -28 -1 -52 -3 -54 -2 -2 0 -16 4 -32 4 -16 6 -31 3 -34 -5 -4 -5 -74
-2 -171 1 -5 1 -39 0 -75 0 -36 0 -72 0 -80 0 -8 0 -46 -1 -83 -1 -38 1 -71 4
-74 3 -4 1 -11 -4 -18 -6 -7 -6 -23 -1 -43 5 -17 7 -32 5 -35 -2 -2 -4 -31 -4
-63 0 -32 0 -67 0 -76 0 -10 -1 -28 -1 -40 0 -13 0 -32 1 -43 1 -11 1 -54 0
-96 l-1 -76 -1298 0 c-714 0 -1302 -2 -1307 -5 -7 -5 -12 -2958 -5 -3013 1 -7
931 -9 2773 -8 1525 1 2776 2 2779 2 3 1 5 2476 5 5501 l0 5500 -163 0 -163 0
0 -192 c0 -106 -1 -2507 -1 -5334 0 -4836 -1 -5142 -17 -5146 -9 -2 -1113 -4
-2452 -3 l-2435 0 -2 1186 -1 1185 1286 0 c708 -1 1296 0 1308 2 l21 4 -1
1466 -1 1467 -1290 1 c-709 1 -1295 2 -1301 3 -7 1 -10 351 -9 1164 1 639 3
1167 3 1173 2 7 366 11 1262 10 693 0 1262 3 1266 7 5 5 9 2698 5 2968 l-1 36
-2780 1 -2779 0 -3 -220z"/>
</g>
</svg>
