<?xml version="1.0" standalone="no"?>
<!DOCTYPE svg PUBLIC "-//W3C//DTD SVG 1.1//EN" "http://www.w3.org/Graphics/SVG/1.1/DTD/svg11.dtd">
<svg width="18" height="16" viewBox="0 0 18 16" version="1.1" xmlns="http://www.w3.org/2000/svg" xmlns:xlink="http://www.w3.org/1999/xlink" xml:space="preserve">
	<title>Boilerplate Icon</title>
	<path d="M16.801,13.482L16.801,15.092L1.238,15.092C1.208,14.563 1.199,14.052 1.199,13.562C1.199,12.04 1.365,10.969 1.688,10.36C1.941,9.89 2.285,9.517 2.716,9.261C3.146,9.006 3.741,8.801 4.494,8.652C5.072,8.544 6.638,8.416 9.191,8.269C10.795,8.181 11.892,8.103 12.497,8.025C13.095,7.956 13.564,7.848 13.887,7.701C14.267,7.523 14.551,7.268 14.717,6.916C14.895,6.572 14.973,6.09 14.973,5.491C14.973,4.216 14.65,3.411 13.995,3.076C13.328,2.743 11.666,2.566 9.025,2.566C8.114,2.566 7.195,2.596 6.286,2.665C5.375,2.734 4.75,2.812 4.427,2.901C4.044,3.009 3.752,3.176 3.547,3.401C3.35,3.636 3.224,3.96 3.166,4.382C3.125,4.637 3.097,5.296 3.097,6.345L1.316,6.345C1.316,5.119 1.365,4.255 1.452,3.755C1.541,3.253 1.727,2.821 2.002,2.449C2.294,2.066 2.646,1.762 3.058,1.556C3.469,1.349 3.986,1.193 4.622,1.104C5.561,0.977 6.764,0.908 8.222,0.908C9.211,0.908 10.325,0.938 11.548,1.005C12.77,1.074 13.612,1.143 14.062,1.232C14.609,1.32 15.079,1.517 15.501,1.831C15.912,2.135 16.215,2.508 16.401,2.949C16.615,3.47 16.734,4.246 16.734,5.277C16.734,6.14 16.654,6.808 16.498,7.298C16.342,7.779 16.068,8.191 15.676,8.535C15.295,8.859 14.854,9.104 14.337,9.27C13.817,9.439 13.103,9.566 12.184,9.644C10.727,9.782 8.75,9.91 6.247,10.038C5.288,10.096 4.594,10.213 4.163,10.39C3.733,10.567 3.449,10.881 3.283,11.313C3.155,11.646 3.097,12.364 3.086,13.473L16.801,13.473L16.801,13.482Z" style="fill:#fff;fill-rule:nonzero;"/>
</svg>