<svg xmlns="http://www.w3.org/2000/svg" viewBox="0 0 200 200" style="enable-background:new 0 0 200 200"><g style="fill:#a3a4a6"><path d="m184.9 58.62l2.1-7.8-7.9-2.1c-7.6-11.4-17.7-21-29.5-28.1l-8.5 14.7c21.2 13 35.5 36 36.5 62.3h17.2c-.4-14-3.9-27.2-9.9-39"/><path d="m144.9 17.816c-11.4-6-24.2-9.9-37.8-10.8l-6.7-6.7-6.7 6.7c-13.6.9-26.4 4.7-37.8 10.8l8.5 14.8c10.7-5.6 23-8.8 36-8.8 13 0 25.2 3.2 36 8.8l8.5-14.8"/></g><path d="m172.1 97.62c-1.4-38.4-33-69.1-71.7-69.1-12.1 0-23.5 3-33.5 8.3l3.7 6.4c8.8-4.5 18.8-7.1 29.5-7.1 34.6 0 62.9 27.3 64.5 61.5h7.5" style="fill:#707173"/><g style="fill:#a3a4a6"><path d="m178.4 152.7l8.6-2.3-2.3-8.4c6-11.9 9.6-25.2 10-39.3h-17.2c-.9 26.3-15.3 49.3-36.5 62.3l8.5 14.8c11.6-6.9 21.4-16.1 28.9-27.1"/><path d="m55.9 182.5c11.4 6 24.2 9.8 37.8 10.8l6.7 6.7 6.7-6.7c13.6-.9 26.4-4.7 37.8-10.8l-8.5-14.8c-10.7 5.6-23 8.8-36 8.8-13 0-25.2-3.2-36-8.8l-8.5 14.8"/></g><path d="m66.9 163.5c10 5.3 21.4 8.3 33.5 8.3 38.7 0 70.3-30.7 71.7-69.1h-7.5c-1.2 34.6-29.7 62.3-64.5 62.3-10.7 0-20.9-2.6-29.8-7.3l-3.4 5.8" style="fill:#707173"/><g style="fill:#6aa563"><path d="m16.1 142l-2.3 8.4 8.6 2.3c7.5 10.9 17.3 20.2 28.7 27.1l8.5-14.8c-21.2-13-35.5-36-36.5-62.3h-17c.4 14.1 3.9 27.4 10 39.3"/><path d="m21.8 48.3l-7.9 2.1 2.1 7.8c-5.9 11.8-9.5 25-9.9 39h17.2c.9-26.2 15.2-49.2 36.4-62.2l-8.5-14.8c-11.7 7.1-21.8 16.7-29.4 28.1"/><path d="m28.7 100c0 25.6 13.4 48 33.6 60.8l3.3-5.8c-18.1-11.4-30.1-31.6-30.1-54.6 0-23.1 12.1-43.4 30.4-54.8l-3.7-6.3c-20.1 12.7-33.5 35.1-33.5 60.7"/></g></svg>