<svg xmlns="http://www.w3.org/2000/svg" width="100" height="100" viewBox="0 0 100 100">
  <g fill="none" fill-rule="evenodd">
    <path d="M0,1.0658141e-13 L50,0 C83.3333333,0.750748213 100,17.4174149 100,50 C100,83.3333333 83.150702,100 49.4521061,100 L0,100 L0,1.0658141e-13 Z"/>
    <path d="M20,20 L50,20 C70,20.4504489 80,30.4504489 80,50 C80,70 69.8904212,80 49.6712636,80 L20,80 L20,20 Z"/>
    <path d="M40,40 L50,40 C56.6666667,40.1501496 60,43.483483 60,50 C60,56.6666667 56.6301404,60 49.8904212,60 L40,60 L40,40 Z"/>
  </g>
</svg>
