<svg xmlns="http://www.w3.org/2000/svg">
	
<symbol id="icon--hamburger" viewBox="0 0 24 24">
	<title>Menu</title>
	<g id="group-hamburger" transform="translate(4.000000, 2.000000)">
		<rect id="Rectangle-top" x="0" y="0" width="16" height="2" />
		<rect id="Rectangle-middle" x="0" y="6" width="16" height="2" />
		<rect id="Rectangle-bottom" x="0" y="12" width="16" height="2" />
	</g>
</symbol>

<symbol id="icon--close" viewBox="0 0 24 24">
	<title>Close</title>
	<g id="group-close" transform="translate(6.000000, 3.000000)">
		<rect id="Rectangle-6-Copy" transform="translate(7.000000, 7.000000) rotate(45.000000) translate(-7.000000, -7.000000) " x="-1" y="6" width="16" height="2" />
		<rect id="Rectangle-6-Copy-3" transform="translate(7.000000, 7.000000) rotate(135.000000) translate(-7.000000, -7.000000) " x="-1" y="6" width="16" height="2" />
	</g>
</symbol>

<symbol id="icon--mail" viewBox="0 0 20 16">
	<title>Mail</title>
	<path d="M18,0 L2,0 C0.9,0 0.01,0.9 0.01,2 L0,14 C0,15.1 0.9,16 2,16 L18,16 C19.1,16 20,15.1 20,14 L20,2 C20,0.9 19.1,0 18,0 Z M18,4 L10,9 L2,4 L2,2 L10,7 L18,2 L18,4 Z" id="Shape" />
</symbol>

<symbol id="icon--facebook" viewBox="0 0 16 16">
	<title>Facebook</title>
	<path d="M15.117 0H.883C.395 0 0 .395 0 .883v14.234c0 .488.395.883.883.883h7.663V9.804H6.46V7.39h2.086V5.607c0-2.066 1.262-3.19 3.106-3.19.883 0 1.642.064 1.863.094v2.16h-1.28c-1 0-1.195.48-1.195 1.18v1.54h2.39l-.31 2.42h-2.08V16h4.077c.488 0 .883-.395.883-.883V.883C16 .395 15.605 0 15.117 0" fill-rule="nonzero"/>
</symbol>
	
<symbol id="icon--vine" viewBox="0 0 16 16">
	<title>Vine</title>
	<path d="M15.013 7.954c-.412.095-.81.137-1.17.137-2.018 0-3.572-1.41-3.572-3.86 0-1.2.47-1.82 1.13-1.82.63 0 1.04.56 1.04 1.7 0 .65-.17 1.36-.3 1.78 0 0 .62 1.09 2.32.75.36-.8.56-1.84.56-2.75 0-2.45-1.25-3.88-3.54-3.88C9.12 0 7.74 1.81 7.74 4.2c0 2.365 1.105 4.395 2.928 5.32-.767 1.533-1.742 2.884-2.76 3.902-1.844-2.232-3.513-5.21-4.198-11.02H.987C2.245 12.08 5.994 15.16 6.985 15.75c.56.336 1.044.32 1.556.032.81-.458 3.23-2.875 4.57-5.705.56-.002 1.24-.066 1.91-.218V7.95z" fill-rule="nonzero"/>
</symbol>

<symbol id="icon--vimeo" viewBox="0 0 24 24">
	<title>Vimeo</title>
	<path d="M24 6.643C24 11.286 15 22 10.875 22 6 22 6 7.714 3.013 7.714c-.388 0-1.883 1.07-1.883 1.07L0 7.358s5.25-5 7.5-5c4.5 0 3 12.5 5.625 12.5 1.5 0 6.75-7.857 2.25-7.857-.75 0-1.5.357-1.5.357C15 3.787 17.25 2 20.625 2 22.875 2 24 3.786 24 6.643z"></path>
</symbol>

<symbol id="icon--instagram" viewBox="0 0 16 16">
	<title>Instagram</title>
	<path d="M8 0C5.827 0 5.555.01 4.702.048 3.85.088 3.27.222 2.76.42c-.526.204-.973.478-1.417.923-.445.444-.72.89-.923 1.417-.198.51-.333 1.09-.372 1.942C.008 5.555 0 5.827 0 8s.01 2.445.048 3.298c.04.852.174 1.433.372 1.942.204.526.478.973.923 1.417.444.445.89.72 1.417.923.51.198 1.09.333 1.942.372.853.04 1.125.048 3.298.048s2.445-.01 3.298-.048c.852-.04 1.433-.174 1.942-.372.526-.204.973-.478 1.417-.923.445-.444.72-.89.923-1.417.198-.51.333-1.09.372-1.942.04-.853.048-1.125.048-3.298s-.01-2.445-.048-3.298c-.04-.852-.174-1.433-.372-1.942-.204-.526-.478-.973-.923-1.417-.444-.445-.89-.72-1.417-.923-.51-.198-1.09-.333-1.942-.372C10.445.008 10.173 0 8 0zm0 1.44c2.136 0 2.39.01 3.233.048.78.036 1.203.166 1.485.276.374.145.64.318.92.598.28.28.453.546.598.92.11.282.24.705.276 1.485.038.844.047 1.097.047 3.233s-.01 2.39-.05 3.233c-.04.78-.17 1.203-.28 1.485-.15.374-.32.64-.6.92-.28.28-.55.453-.92.598-.28.11-.71.24-1.49.276-.85.038-1.1.047-3.24.047s-2.39-.01-3.24-.05c-.78-.04-1.21-.17-1.49-.28-.38-.15-.64-.32-.92-.6-.28-.28-.46-.55-.6-.92-.11-.28-.24-.71-.28-1.49-.03-.84-.04-1.1-.04-3.23s.01-2.39.04-3.24c.04-.78.17-1.21.28-1.49.14-.38.32-.64.6-.92.28-.28.54-.46.92-.6.28-.11.7-.24 1.48-.28.85-.03 1.1-.04 3.24-.04zm0 2.452c-2.27 0-4.108 1.84-4.108 4.108 0 2.27 1.84 4.108 4.108 4.108 2.27 0 4.108-1.84 4.108-4.108 0-2.27-1.84-4.108-4.108-4.108zm0 6.775c-1.473 0-2.667-1.194-2.667-2.667 0-1.473 1.194-2.667 2.667-2.667 1.473 0 2.667 1.194 2.667 2.667 0 1.473-1.194 2.667-2.667 2.667zm5.23-6.937c0 .53-.43.96-.96.96s-.96-.43-.96-.96.43-.96.96-.96.96.43.96.96z"/>
</symbol>

<symbol id="logo--dd" data-name="Ebene 1" viewBox="0 0 100 100">
	<g fill="none" fill-rule="evenodd">
		<path fill="#000" d="M0,1.0658141e-13 L50,0 C83.3333333,0.750748213 100,17.4174149 100,50 C100,83.3333333 83.150702,100 49.4521061,100 L0,100 L0,1.0658141e-13 Z"/>
		<path fill="#FFF" d="M20,20 L50,20 C70,20.4504489 80,30.4504489 80,50 C80,70 69.8904212,80 49.6712636,80 L20,80 L20,20 Z"/>
		<path fill="#000" d="M40,40 L50,40 C56.6666667,40.1501496 60,43.483483 60,50 C60,56.6666667 56.6301404,60 49.8904212,60 L40,60 L40,40 Z"/>
	</g>
</symbol>

</svg>
